<?xml version="1.0" encoding="UTF-8" standalone="no"?>
<svg
   xmlns:dc="http://purl.org/dc/elements/1.1/"
   xmlns:cc="http://creativecommons.org/ns#"
   xmlns:rdf="http://www.w3.org/1999/02/22-rdf-syntax-ns#"
   xmlns:svg="http://www.w3.org/2000/svg"
   xmlns="http://www.w3.org/2000/svg"
   xmlns:sodipodi="http://sodipodi.sourceforge.net/DTD/sodipodi-0.dtd"
   xmlns:inkscape="http://www.inkscape.org/namespaces/inkscape"
   inkscape:version="1.0 (4035a4fb49, 2020-05-01)"
   sodipodi:docname="logo.svg"
   id="svg1945"
   version="1.1"
   viewBox="0 0 17.995088 17.995089"
   height="17.995089mm"
   width="17.995089mm">
  <defs
     id="defs1939" />
  <sodipodi:namedview
     inkscape:window-maximized="0"
     inkscape:window-y="82"
     inkscape:window-x="422"
     inkscape:window-height="964"
     inkscape:window-width="1494"
     fit-margin-bottom="0"
     fit-margin-right="0"
     fit-margin-left="0"
     fit-margin-top="0"
     showgrid="false"
     inkscape:document-rotation="0"
     inkscape:current-layer="layer1"
     inkscape:document-units="mm"
     inkscape:cy="364.72267"
     inkscape:cx="-70.607817"
     inkscape:zoom="0.98994949"
     inkscape:pageshadow="2"
     inkscape:pageopacity="0.0"
     borderopacity="1.0"
     bordercolor="#666666"
     pagecolor="#ffffff"
     id="base" />
  <metadata
     id="metadata1942">
    <rdf:RDF>
      <cc:Work
         rdf:about="">
        <dc:format>image/svg+xml</dc:format>
        <dc:type
           rdf:resource="http://purl.org/dc/dcmitype/StillImage" />
        <dc:title></dc:title>
      </cc:Work>
    </rdf:RDF>
  </metadata>
  <g
     transform="translate(-84.560333,-51.667126)"
     id="layer1"
     inkscape:groupmode="layer"
     inkscape:label="Layer 1">
    <g
       id="g1914"
       transform="matrix(0.28222223,0,0,0.28222223,9.9300027,18.457346)">
      <rect
         style="fill:#ffffff;fill-opacity:1;stroke:#000000;stroke-width:2;stroke-miterlimit:4;stroke-dasharray:none;stroke-opacity:1"
         id="rect4414"
         width="61.762123"
         height="61.762123"
         x="265.43817"
         y="118.67245" />
      <g
         style="font-style:normal;font-weight:normal;font-size:40px;line-height:125%;font-family:sans-serif;letter-spacing:0px;word-spacing:0px;fill:#000000;fill-opacity:1;stroke:#000000;stroke-width:1;stroke-linecap:butt;stroke-linejoin:miter;stroke-miterlimit:4;stroke-dasharray:none;stroke-opacity:1"
         id="g4398"
         transform="translate(99.28571,-0.142857)">
        <path
           style="word-spacing:0px;stroke:#000000;stroke-width:1;stroke-miterlimit:4;stroke-dasharray:none;stroke-opacity:1"
           d="m 191.65625,130.69336 v 11.83594 c -0.75521,-1.30209 -1.71223,-2.26563 -2.87109,-2.89063 -1.14584,-0.63802 -2.52605,-0.95703 -4.14063,-0.95703 -2.64323,0 -4.79818,1.05469 -6.46484,3.16406 -1.65365,2.10938 -2.48047,4.88282 -2.48047,8.32032 0,3.4375 0.82682,6.21093 2.48047,8.32031 1.66666,2.10937 3.82161,3.16406 6.46484,3.16406 1.61458,0 2.99479,-0.3125 4.14063,-0.9375 1.15886,-0.63802 2.11588,-1.60808 2.87109,-2.91016 v 3.28125 H 195.25 v -8.07226 c 0.39735,2.20917 1.27766,4.05793 2.66016,5.5332 1.94011,2.07031 4.55729,3.10547 7.85156,3.10547 1.21094,0 2.35026,-0.11719 3.41797,-0.35156 1.08073,-0.23437 2.12239,-0.58594 3.125,-1.05469 v 0.006 c 0.63834,0.38986 0.92585,0.53982 1.30273,0.67383 0.40086,0.14254 0.83729,0.21599 1.48828,0.33008 1.27604,0.23437 2.50001,0.39648 3.67188,0.39648 2.8125,0 5.01952,-0.59245 6.62109,-1.77734 1.61458,-1.1849 2.42188,-2.79297 2.42188,-4.82422 0,-1.78385 -0.54037,-3.17057 -1.6211,-4.16016 -1.06771,-1.0026 -2.8776,-1.77734 -5.42968,-2.32422 l -1.23047,-0.27343 c -1.92708,-0.42969 -3.20963,-0.87891 -3.84766,-1.34766 -0.63802,-0.48177 -0.95703,-1.13933 -0.95703,-1.97266 0,-1.09375 0.4427,-1.91406 1.32812,-2.46093 0.89843,-0.54688 2.23958,-0.82032 4.02344,-0.82032 1.17187,0 2.30469,0.13021 3.39844,0.39063 1.09375,0.26041 3.32032,0.91861 4.33594,1.43945 v -3.13086 c -0.98959,-0.39062 -3.2422,-1.21875 -4.41407,-1.41406 -1.17187,-0.19527 -2.42187,-0.29297 -3.75,-0.29297 -2.68229,0 -4.7526,0.5599 -6.21093,1.67969 -0.0433,0.0333 -0.0791,0.0714 -0.1211,0.10547 -0.39275,-0.21777 -0.82023,-0.44474 -1.26172,-0.62891 -1.11856,-0.46662 -2.26772,-0.68994 -2.81445,-0.80469 -1.05469,-0.23437 -2.13542,-0.35156 -3.24219,-0.35156 -3.41146,0 -6.10025,1.02214 -8.0664,3.06641 -1.39403,1.45908 -2.28064,3.31366 -2.67969,5.54883 V 130.6935 h -3.59375 z m -6.13281,10.99609 c 1.90104,0 3.39844,0.75521 4.49218,2.26563 1.09376,1.49739 1.64063,3.5677 1.64063,6.21094 0,2.64322 -0.54687,4.72004 -1.64063,6.23046 -1.09374,1.4974 -2.59114,2.2461 -4.49218,2.2461 -1.90105,0 -3.39844,-0.7487 -4.49219,-2.2461 -1.08073,-1.51042 -1.62109,-3.58724 -1.62109,-6.23046 0,-2.64324 0.54036,-4.71355 1.62109,-6.21094 1.09375,-1.51042 2.59114,-2.26563 4.49219,-2.26563 z m 20.6289,0.0391 c 1.04167,0 2.07032,0.14323 3.08594,0.42968 0.77374,0.20568 1.54222,0.51897 2.3086,0.88672 -0.19786,0.63058 -0.29883,1.32426 -0.29883,2.08203 0,1.69271 0.49478,3.02735 1.48437,4.00391 0.98958,0.96354 2.59766,1.67969 4.82422,2.14844 l 1.25,0.29297 c 2.22657,0.48177 3.66537,0.98307 4.31641,1.5039 0.66406,0.52083 0.99609,1.26953 0.99609,2.2461 0,1.05469 -0.45574,1.875 -1.36719,2.46093 -0.91146,0.57292 -2.21354,0.85938 -3.90625,0.85938 -1.26302,0 -2.53905,-0.16927 -3.82812,-0.50781 -1.28906,-0.35157 -1.43498,-0.42039 -2.71289,-1.21094 -1.01563,0.55989 -2.03776,0.98307 -3.06641,1.26953 -1.01562,0.27344 -2.04427,0.41016 -3.08594,0.41016 -2.33073,0 -4.14062,-0.73569 -5.42968,-2.20704 -1.28906,-1.48438 -1.9336,-3.56119 -1.9336,-6.23046 0,-2.66927 0.64454,-4.73959 1.9336,-6.21094 1.28906,-1.48437 3.09895,-2.22656 5.42968,-2.22656 z"
           id="path4400"
           inkscape:connector-curvature="0" />
      </g>
      <g
         id="g4402"
         transform="translate(99.28571,-62.006005)"
         style="stroke-width:2;stroke-miterlimit:4;stroke-dasharray:none">
        <path
           inkscape:connector-curvature="0"
           id="path4404"
           d="m 165.72782,201.11927 h 19.82424"
           style="fill:none;fill-rule:evenodd;stroke:#000000;stroke-width:2;stroke-linecap:butt;stroke-linejoin:miter;stroke-miterlimit:4;stroke-dasharray:none;stroke-opacity:1" />
        <path
           style="fill:none;fill-rule:evenodd;stroke:#000000;stroke-width:2;stroke-linecap:butt;stroke-linejoin:miter;stroke-miterlimit:4;stroke-dasharray:none;stroke-opacity:1"
           d="m 165.72782,223.01331 h 19.82424"
           id="path4406"
           inkscape:connector-curvature="0" />
        <path
           style="fill:none;fill-rule:evenodd;stroke:#000000;stroke-width:2;stroke-linecap:butt;stroke-linejoin:miter;stroke-miterlimit:4;stroke-dasharray:none;stroke-opacity:1"
           d="m 165.72782,206.56647 h 13.25482"
           id="path4408"
           inkscape:connector-curvature="0" />
        <path
           inkscape:connector-curvature="0"
           id="path4410"
           d="m 165.72782,217.51349 h 13.25482"
           style="fill:none;fill-rule:evenodd;stroke:#000000;stroke-width:2;stroke-linecap:butt;stroke-linejoin:miter;stroke-miterlimit:4;stroke-dasharray:none;stroke-opacity:1" />
        <path
           style="fill:none;fill-rule:evenodd;stroke:#000000;stroke-width:2;stroke-linecap:butt;stroke-linejoin:miter;stroke-miterlimit:4;stroke-dasharray:none;stroke-opacity:1"
           d="m 165.72782,212.03998 h 13.25482"
           id="path4412"
           inkscape:connector-curvature="0" />
      </g>
    </g>
  </g>
</svg>
